<!-- by TradingView --><svg width="18" height="18" viewBox="0 0 18 18" xmlns="http://www.w3.org/2000/svg"><path fill="#F0F3FA" d="M0 0h18v18H0z"/><path d="M8.42 3.36c.18-.48.98-.48 1.16 0a47.84 47.84 0 0 0 4.32 8.66c.27.41-.03.98-.54.98H4.64c-.51 0-.81-.57-.54-.98a47.85 47.85 0 0 0 4.32-8.66Z" fill="#001976"/><path d="M8.9 8.53c.48.7 3.31 2.72 5.09 3.93a.64.64 0 0 1-.63.54H4.64a.64.64 0 0 1-.64-.68c1.78-1.22 4.42-3.11 4.9-3.79Z" fill="url(#a)"/><path d="M8.42 3.36c.18-.48.98-.48 1.16 0a47.85 47.85 0 0 0 4.32 8.66c.27.4-.02.97-.52.98h-.02v-.3c.25 0 .44-.29.28-.52A48.12 48.12 0 0 1 9.3 3.46c-.04-.1-.15-.17-.3-.17s-.26.07-.3.17a48.12 48.12 0 0 1-4.34 8.72c-.16.23.03.53.28.53V13h-.02c-.5 0-.79-.57-.52-.98a47.85 47.85 0 0 0 4.32-8.66Zm4.94 9.35V13H4.64v-.3h8.72Z" fill="#C7B671"/><path d="M9 4.82c.34.34.46.8.48.99v.6c.02-.1.12-.24.17-.3.17.16.26.48.29.62V9.3c.26.24.32.56.31.69l-.31.18v.7h-.31v-.7l-.63.59-.62-.59v.7h-.32v-.7L7.75 10c0-.13.05-.46.31-.7V6.72c.03-.14.12-.45.29-.6.05.05.15.18.17.29v-.6c.02-.19.14-.65.48-1Z" fill="#F9FBF8"/><path d="M9 6.64c.25.26.31.7.31 1.05v1.68c0 .35.11.74.17.88l-.05.02a2.98 2.98 0 0 1-.17-.9V7.69a.71.71 0 0 0-.07-.25c-.05-.08-.1-.14-.19-.15-.08 0-.14.07-.19.15a.71.71 0 0 0-.07.25v1.68c0 .36-.11.75-.17.9l-.05-.02c.06-.14.17-.53.17-.88V7.69c0-.35.06-.79.3-1.05H9Zm0 .08c-.15.2-.22.47-.25.72l.02-.03c.04-.08.11-.15.21-.17h.04c.1.02.17.09.21.17l.02.03c-.03-.25-.1-.52-.25-.72ZM8.53 8.52a7.69 7.69 0 0 1-.43.75l-.04-.04a7.64 7.64 0 0 0 .42-.73V6.34h.05v2.19ZM9.52 6.33v2.18a7.64 7.64 0 0 0 .42.72l-.04.04a7.69 7.69 0 0 1-.43-.74V6.32h.05Z"/><path d="M9.03 10.15v.45h-.06v-.45h.06Z"/><path fill="#F0F3FA" fill-opacity=".7" d="M6 11h6v1H6z"/><defs><linearGradient id="a" x1="9" y1="8.53" x2="9" y2="13" gradientUnits="userSpaceOnUse"><stop stop-color="#2380D0"/><stop offset="1" stop-color="#5CA6D7"/></linearGradient></defs></svg>